<svg width="150" height="148" viewBox="0 0 150 148" fill="none" xmlns="http://www.w3.org/2000/svg">
<path d="M8.9407e-06 28C8.9407e-06 11.4315 13.5632 -2.30238 29.8014 0.989611C58.4806 6.80379 85.0661 20.934 106.066 41.934C134.196 70.0645 150 108.218 150 148C150 187.782 134.196 225.936 106.066 254.066C85.0661 275.066 58.4806 289.196 29.8014 295.01C13.5632 298.302 2.41995e-05 284.569 2.41995e-05 268C2.41995e-05 251.431 13.7919 238.468 29.4483 233.046C42.1991 228.63 53.9171 221.362 63.6396 211.64C80.5179 194.761 90 171.869 90 148C90 124.131 80.5179 101.239 63.6396 84.3604C53.9171 74.6379 42.1991 67.3695 29.4483 62.9541C13.7919 57.5325 8.9407e-06 44.5686 8.9407e-06 28Z" fill="#156FEB"/>
</svg>
