<svg width="151" height="159" viewBox="0 0 151 159" fill="none" xmlns="http://www.w3.org/2000/svg">
<path d="M84.9188 -76.7868C96.6346 -88.5025 115.936 -88.6232 125.091 -74.8133C141.259 -50.4228 150.066 -21.6324 150.066 8.06599C150.066 47.8485 134.263 86.0015 106.132 114.132C78.0016 142.262 39.8485 158.066 0.0660562 158.066C-29.6324 158.066 -58.4227 149.259 -82.8132 133.091C-96.6231 123.936 -96.5025 104.635 -84.7868 92.9188C-73.071 81.2031 -54.1518 81.7885 -39.2474 89.0256C-27.1091 94.9196 -13.6837 98.066 0.0660508 98.066C23.9355 98.066 46.8274 88.5839 63.7057 71.7056C80.5839 54.8273 90.066 31.9355 90.066 8.06598C90.066 -5.68376 86.9197 -19.1091 81.0257 -31.2475C73.7886 -46.1519 73.2031 -65.0711 84.9188 -76.7868Z" fill="#FF7701"/>
</svg>
