<svg width="150" height="148" viewBox="0 0 150 148" fill="none" xmlns="http://www.w3.org/2000/svg">
<path d="M150 28C150 11.4315 136.437 -2.30238 120.199 0.989611C91.5194 6.80379 64.9339 20.9341 43.934 41.934C15.8035 70.0645 3.00349e-06 108.218 0 148C-3.00349e-06 187.782 15.8035 225.936 43.934 254.066C64.9339 275.066 91.5194 289.196 120.199 295.01C136.437 298.302 150 284.569 150 268C150 251.431 136.208 238.468 120.552 233.046C107.801 228.63 96.0829 221.362 86.3604 211.64C69.4821 194.761 60 171.869 60 148C60 124.131 69.4821 101.239 86.3604 84.3604C96.0829 74.6379 107.801 67.3695 120.552 62.9541C136.208 57.5325 150 44.5686 150 28Z" fill="#FF7701"/>
</svg>
