<svg width="400" height="205" viewBox="0 0 400 205" fill="none" xmlns="http://www.w3.org/2000/svg">
<path fill-rule="evenodd" clip-rule="evenodd" d="M170.711 -165.711C189.464 -146.957 200 -121.522 200 -95C200 -68.4784 189.464 -43.043 170.711 -24.2893C151.957 -5.53569 126.522 5 100 5C73.4784 5 48.043 -5.53568 29.2893 -24.2893C10.5357 -43.043 4.00466e-06 -68.4783 0 -95L40 -95C40 -79.087 46.3214 -63.8258 57.5736 -52.5736C68.8258 -41.3214 84.087 -35 100 -35C115.913 -35 131.174 -41.3214 142.426 -52.5736C153.679 -63.8258 160 -79.087 160 -95C160 -110.913 153.679 -126.174 142.426 -137.426C131.174 -148.679 115.913 -155 100 -155C84.087 -155 68.8258 -148.679 57.5736 -137.426C46.3214 -126.174 40 -110.913 40 -95L0 -95C4.00466e-06 -121.522 10.5357 -146.957 29.2893 -165.711C48.043 -184.464 73.4784 -195 100 -195C126.522 -195 151.957 -184.464 170.711 -165.711Z" fill="url(#paint0_linear_1_377)"/>
<path fill-rule="evenodd" clip-rule="evenodd" d="M270.711 -65.7107C289.464 -46.957 300 -21.5216 300 5C300 31.5216 289.464 56.957 270.711 75.7107C251.957 94.4643 226.522 105 200 105C173.478 105 148.043 94.4643 129.289 75.7107C110.536 56.957 100 31.5217 100 5.00002L140 5.00001C140 20.913 146.321 36.1742 157.574 47.4264C168.826 58.6786 184.087 65 200 65C215.913 65 231.174 58.6786 242.426 47.4264C253.679 36.1742 260 20.913 260 5C260 -10.913 253.679 -26.1742 242.426 -37.4264C231.174 -48.6786 215.913 -55 200 -55C184.087 -55 168.826 -48.6786 157.574 -37.4264C146.321 -26.1742 140 -10.913 140 4.99999L100 4.99998C100 -21.5217 110.536 -46.9571 129.289 -65.7107C148.043 -84.4643 173.478 -95 200 -95C226.522 -95 251.957 -84.4643 270.711 -65.7107Z" fill="url(#paint1_linear_1_377)"/>
<path fill-rule="evenodd" clip-rule="evenodd" d="M370.711 34.2893C389.464 53.043 400 78.4784 400 105C400 131.522 389.464 156.957 370.711 175.711C351.957 194.464 326.522 205 300 205C273.478 205 248.043 194.464 229.289 175.711C210.536 156.957 200 131.522 200 105L240 105C240 120.913 246.321 136.174 257.574 147.426C268.826 158.679 284.087 165 300 165C315.913 165 331.174 158.679 342.426 147.426C353.679 136.174 360 120.913 360 105C360 89.087 353.679 73.8258 342.426 62.5736C331.174 51.3214 315.913 45 300 45C284.087 45 268.826 51.3214 257.574 62.5736C246.321 73.8258 240 89.087 240 105L200 105C200 78.4783 210.536 53.0429 229.289 34.2893C248.043 15.5357 273.478 5 300 5C326.522 5 351.957 15.5357 370.711 34.2893Z" fill="url(#paint2_linear_1_377)"/>
<defs>
<linearGradient id="paint0_linear_1_377" x1="100" y1="-195" x2="100" y2="5" gradientUnits="userSpaceOnUse">
<stop offset="0.25" stop-color="#156FEB"/>
<stop offset="0.75" stop-color="#FF7701"/>
</linearGradient>
<linearGradient id="paint1_linear_1_377" x1="200" y1="-95" x2="200" y2="105" gradientUnits="userSpaceOnUse">
<stop offset="0.25" stop-color="#156FEB"/>
<stop offset="0.75" stop-color="#FF7701"/>
</linearGradient>
<linearGradient id="paint2_linear_1_377" x1="300" y1="5" x2="300" y2="205" gradientUnits="userSpaceOnUse">
<stop offset="0.25" stop-color="#156FEB"/>
<stop offset="0.75" stop-color="#FF7701"/>
</linearGradient>
</defs>
</svg>
