<svg width="230" height="115" viewBox="0 0 230 115" fill="none" xmlns="http://www.w3.org/2000/svg">
<path fill-rule="evenodd" clip-rule="evenodd" d="M42.6777 42.6777C47.3661 37.9893 50 31.6304 50 25C50 18.3696 47.3661 12.0107 42.6777 7.32233C37.9893 2.63392 31.6304 0 25 0C18.3696 0 12.0107 2.63392 7.32233 7.32233C2.63392 12.0107 0 18.3696 0 25L10 25C10 21.0217 11.5804 17.2064 14.3934 14.3934C17.2064 11.5804 21.0218 10 25 10C28.9782 10 32.7936 11.5804 35.6066 14.3934C38.4196 17.2064 40 21.0218 40 25C40 28.9782 38.4196 32.7936 35.6066 35.6066C32.7936 38.4196 28.9782 40 25 40C21.0218 40 17.2064 38.4196 14.3934 35.6066C11.5804 32.7936 10 28.9783 10 25L0 25C0 31.6304 2.63392 37.9893 7.32233 42.6777C12.0107 47.3661 18.3696 50 25 50C31.6304 50 37.9893 47.3661 42.6777 42.6777Z" fill="url(#paint0_linear_1_231)"/>
<path fill-rule="evenodd" clip-rule="evenodd" d="M102.678 42.6777C107.366 37.9893 110 31.6304 110 25C110 18.3696 107.366 12.0107 102.678 7.32233C97.9893 2.63392 91.6304 0 85 0C78.3696 0 72.0107 2.63392 67.3223 7.32233C62.6339 12.0107 60 18.3696 60 25L70 25C70 21.0217 71.5804 17.2064 74.3934 14.3934C77.2064 11.5804 81.0218 10 85 10C88.9782 10 92.7936 11.5804 95.6066 14.3934C98.4196 17.2064 100 21.0218 100 25C100 28.9782 98.4196 32.7936 95.6066 35.6066C92.7936 38.4196 88.9782 40 85 40C81.0218 40 77.2064 38.4196 74.3934 35.6066C71.5804 32.7936 70 28.9783 70 25L60 25C60 31.6304 62.6339 37.9893 67.3223 42.6777C72.0107 47.3661 78.3696 50 85 50C91.6304 50 97.9893 47.3661 102.678 42.6777Z" fill="url(#paint1_linear_1_231)"/>
<path fill-rule="evenodd" clip-rule="evenodd" d="M162.678 42.6777C167.366 37.9893 170 31.6304 170 25C170 18.3696 167.366 12.0107 162.678 7.32233C157.989 2.63392 151.63 0 145 0C138.37 0 132.011 2.63392 127.322 7.32233C122.634 12.0107 120 18.3696 120 25L130 25C130 21.0217 131.58 17.2064 134.393 14.3934C137.206 11.5804 141.022 10 145 10C148.978 10 152.794 11.5804 155.607 14.3934C158.42 17.2064 160 21.0218 160 25C160 28.9782 158.42 32.7936 155.607 35.6066C152.794 38.4196 148.978 40 145 40C141.022 40 137.206 38.4196 134.393 35.6066C131.58 32.7936 130 28.9783 130 25L120 25C120 31.6304 122.634 37.9893 127.322 42.6777C132.011 47.3661 138.37 50 145 50C151.63 50 157.989 47.3661 162.678 42.6777Z" fill="url(#paint2_linear_1_231)"/>
<path fill-rule="evenodd" clip-rule="evenodd" d="M222.678 42.6777C227.366 37.9893 230 31.6304 230 25C230 18.3696 227.366 12.0107 222.678 7.32233C217.989 2.63392 211.63 0 205 0C198.37 0 192.011 2.63392 187.322 7.32233C182.634 12.0107 180 18.3696 180 25L190 25C190 21.0217 191.58 17.2064 194.393 14.3934C197.206 11.5804 201.022 10 205 10C208.978 10 212.794 11.5804 215.607 14.3934C218.42 17.2064 220 21.0218 220 25C220 28.9782 218.42 32.7936 215.607 35.6066C212.794 38.4196 208.978 40 205 40C201.022 40 197.206 38.4196 194.393 35.6066C191.58 32.7936 190 28.9783 190 25L180 25C180 31.6304 182.634 37.9893 187.322 42.6777C192.011 47.3661 198.37 50 205 50C211.63 50 217.989 47.3661 222.678 42.6777Z" fill="url(#paint3_linear_1_231)"/>
<path fill-rule="evenodd" clip-rule="evenodd" d="M42.6777 67.3223C47.3661 72.0107 50 78.3696 50 85C50 91.6304 47.3661 97.9893 42.6777 102.678C37.9893 107.366 31.6304 110 25 110C18.3696 110 12.0107 107.366 7.32233 102.678C2.63392 97.9893 0 91.6304 0 85L10 85C10 88.9783 11.5804 92.7936 14.3934 95.6066C17.2064 98.4196 21.0218 100 25 100C28.9782 100 32.7936 98.4196 35.6066 95.6066C38.4196 92.7936 40 88.9782 40 85C40 81.0218 38.4196 77.2064 35.6066 74.3934C32.7936 71.5804 28.9782 70 25 70C21.0218 70 17.2064 71.5804 14.3934 74.3934C11.5804 77.2064 10 81.0217 10 85L0 85C0 78.3696 2.63392 72.0107 7.32233 67.3223C12.0107 62.6339 18.3696 60 25 60C31.6304 60 37.9893 62.6339 42.6777 67.3223Z" fill="url(#paint4_linear_1_231)"/>
<path fill-rule="evenodd" clip-rule="evenodd" d="M102.678 67.3223C107.366 72.0107 110 78.3696 110 85C110 91.6304 107.366 97.9893 102.678 102.678C97.9893 107.366 91.6304 110 85 110C78.3696 110 72.0107 107.366 67.3223 102.678C62.6339 97.9893 60 91.6304 60 85L70 85C70 88.9783 71.5804 92.7936 74.3934 95.6066C77.2064 98.4196 81.0218 100 85 100C88.9782 100 92.7936 98.4196 95.6066 95.6066C98.4196 92.7936 100 88.9782 100 85C100 81.0218 98.4196 77.2064 95.6066 74.3934C92.7936 71.5804 88.9782 70 85 70C81.0218 70 77.2064 71.5804 74.3934 74.3934C71.5804 77.2064 70 81.0217 70 85L60 85C60 78.3696 62.6339 72.0107 67.3223 67.3223C72.0107 62.6339 78.3696 60 85 60C91.6304 60 97.9893 62.6339 102.678 67.3223Z" fill="url(#paint5_linear_1_231)"/>
<path fill-rule="evenodd" clip-rule="evenodd" d="M162.678 67.3223C167.366 72.0107 170 78.3696 170 85C170 91.6304 167.366 97.9893 162.678 102.678C157.989 107.366 151.63 110 145 110C138.37 110 132.011 107.366 127.322 102.678C122.634 97.9893 120 91.6304 120 85L130 85C130 88.9783 131.58 92.7936 134.393 95.6066C137.206 98.4196 141.022 100 145 100C148.978 100 152.794 98.4196 155.607 95.6066C158.42 92.7936 160 88.9782 160 85C160 81.0218 158.42 77.2064 155.607 74.3934C152.794 71.5804 148.978 70 145 70C141.022 70 137.206 71.5804 134.393 74.3934C131.58 77.2064 130 81.0217 130 85L120 85C120 78.3696 122.634 72.0107 127.322 67.3223C132.011 62.6339 138.37 60 145 60C151.63 60 157.989 62.6339 162.678 67.3223Z" fill="url(#paint6_linear_1_231)"/>
<path fill-rule="evenodd" clip-rule="evenodd" d="M222.678 67.3223C227.366 72.0107 230 78.3696 230 85C230 91.6304 227.366 97.9893 222.678 102.678C217.989 107.366 211.63 110 205 110C198.37 110 192.011 107.366 187.322 102.678C182.634 97.9893 180 91.6304 180 85L190 85C190 88.9783 191.58 92.7936 194.393 95.6066C197.206 98.4196 201.022 100 205 100C208.978 100 212.794 98.4196 215.607 95.6066C218.42 92.7936 220 88.9782 220 85C220 81.0218 218.42 77.2064 215.607 74.3934C212.794 71.5804 208.978 70 205 70C201.022 70 197.206 71.5804 194.393 74.3934C191.58 77.2064 190 81.0217 190 85L180 85C180 78.3696 182.634 72.0107 187.322 67.3223C192.011 62.6339 198.37 60 205 60C211.63 60 217.989 62.6339 222.678 67.3223Z" fill="url(#paint7_linear_1_231)"/>
<defs>
<linearGradient id="paint0_linear_1_231" x1="25" y1="50" x2="25" y2="0" gradientUnits="userSpaceOnUse">
<stop offset="0.25" stop-color="#156FEB"/>
<stop offset="0.75" stop-color="#FF7701"/>
</linearGradient>
<linearGradient id="paint1_linear_1_231" x1="85" y1="50" x2="85" y2="0" gradientUnits="userSpaceOnUse">
<stop offset="0.25" stop-color="#156FEB"/>
<stop offset="0.75" stop-color="#FF7701"/>
</linearGradient>
<linearGradient id="paint2_linear_1_231" x1="145" y1="50" x2="145" y2="0" gradientUnits="userSpaceOnUse">
<stop offset="0.25" stop-color="#156FEB"/>
<stop offset="0.75" stop-color="#FF7701"/>
</linearGradient>
<linearGradient id="paint3_linear_1_231" x1="205" y1="50" x2="205" y2="0" gradientUnits="userSpaceOnUse">
<stop offset="0.25" stop-color="#156FEB"/>
<stop offset="0.75" stop-color="#FF7701"/>
</linearGradient>
<linearGradient id="paint4_linear_1_231" x1="25" y1="60" x2="25" y2="110" gradientUnits="userSpaceOnUse">
<stop offset="0.25" stop-color="#156FEB"/>
<stop offset="0.75" stop-color="#FF7701"/>
</linearGradient>
<linearGradient id="paint5_linear_1_231" x1="85" y1="60" x2="85" y2="110" gradientUnits="userSpaceOnUse">
<stop offset="0.25" stop-color="#156FEB"/>
<stop offset="0.75" stop-color="#FF7701"/>
</linearGradient>
<linearGradient id="paint6_linear_1_231" x1="145" y1="60" x2="145" y2="110" gradientUnits="userSpaceOnUse">
<stop offset="0.25" stop-color="#156FEB"/>
<stop offset="0.75" stop-color="#FF7701"/>
</linearGradient>
<linearGradient id="paint7_linear_1_231" x1="205" y1="60" x2="205" y2="110" gradientUnits="userSpaceOnUse">
<stop offset="0.25" stop-color="#156FEB"/>
<stop offset="0.75" stop-color="#FF7701"/>
</linearGradient>
</defs>
</svg>
