<svg width="400" height="195" viewBox="0 0 400 195" fill="none" xmlns="http://www.w3.org/2000/svg">
<path fill-rule="evenodd" clip-rule="evenodd" d="M170.711 29.2893C189.464 48.043 200 73.4784 200 100C200 126.522 189.464 151.957 170.711 170.711C151.957 189.464 126.522 200 100 200C73.4784 200 48.043 189.464 29.2893 170.711C10.5357 151.957 4.00466e-06 126.522 0 100L40 100C40 115.913 46.3214 131.174 57.5736 142.426C68.8258 153.679 84.087 160 100 160C115.913 160 131.174 153.679 142.426 142.426C153.679 131.174 160 115.913 160 100C160 84.087 153.679 68.8258 142.426 57.5736C131.174 46.3214 115.913 40 100 40C84.087 40 68.8258 46.3214 57.5736 57.5736C46.3214 68.8258 40 84.087 40 100L0 100C4.00466e-06 73.4783 10.5357 48.0429 29.2893 29.2893C48.043 10.5357 73.4784 -2.00233e-06 100 0C126.522 2.00233e-06 151.957 10.5357 170.711 29.2893Z" fill="url(#paint0_linear_1_367)"/>
<path fill-rule="evenodd" clip-rule="evenodd" d="M270.711 129.289C289.464 148.043 300 173.478 300 200C300 226.522 289.464 251.957 270.711 270.711C251.957 289.464 226.522 300 200 300C173.478 300 148.043 289.464 129.289 270.711C110.536 251.957 100 226.522 100 200L140 200C140 215.913 146.321 231.174 157.574 242.426C168.826 253.679 184.087 260 200 260C215.913 260 231.174 253.679 242.426 242.426C253.679 231.174 260 215.913 260 200C260 184.087 253.679 168.826 242.426 157.574C231.174 146.321 215.913 140 200 140C184.087 140 168.826 146.321 157.574 157.574C146.321 168.826 140 184.087 140 200L100 200C100 173.478 110.536 148.043 129.289 129.289C148.043 110.536 173.478 100 200 100C226.522 100 251.957 110.536 270.711 129.289Z" fill="url(#paint1_linear_1_367)"/>
<defs>
<linearGradient id="paint0_linear_1_367" x1="100" y1="0" x2="100" y2="200" gradientUnits="userSpaceOnUse">
<stop offset="0.25" stop-color="#156FEB"/>
<stop offset="0.75" stop-color="#FF7701"/>
</linearGradient>
<linearGradient id="paint1_linear_1_367" x1="200" y1="100" x2="200" y2="300" gradientUnits="userSpaceOnUse">
<stop offset="0.25" stop-color="#156FEB"/>
<stop offset="0.75" stop-color="#FF7701"/>
</linearGradient>
</defs>
</svg>
