<svg width="1512" height="982" viewBox="0 0 1512 982" fill="none" xmlns="http://www.w3.org/2000/svg">
<g clip-path="url(#clip0_1_94)">
<rect width="1512" height="982" fill="white"/>
<path d="M250 862C250 845.431 236.437 831.698 220.199 834.99C191.519 840.804 164.934 854.934 143.934 875.934C115.804 904.064 100 942.218 100 982C100 1021.78 115.804 1059.94 143.934 1088.07C164.934 1109.07 191.519 1123.2 220.199 1129.01C236.437 1132.3 250 1118.57 250 1102V1102C250 1085.43 236.208 1072.47 220.552 1067.05C207.801 1062.63 196.083 1055.36 186.36 1045.64C169.482 1028.76 160 1005.87 160 982C160 958.131 169.482 935.239 186.36 918.36C196.083 908.638 207.801 901.37 220.552 896.954C236.208 891.532 250 878.569 250 862V862Z" fill="#FF7701"/>
<path d="M84.9188 -76.7868C96.6346 -88.5025 115.936 -88.6232 125.091 -74.8133C141.259 -50.4228 150.066 -21.6324 150.066 8.06598C150.066 47.8484 134.263 86.0015 106.132 114.132C78.0016 142.262 39.8485 158.066 0.0660562 158.066C-29.6324 158.066 -58.4227 149.259 -82.8132 133.091C-96.6232 123.936 -96.5025 104.635 -84.7868 92.9188V92.9188C-73.071 81.2031 -54.1518 81.7885 -39.2474 89.0256C-27.1091 94.9196 -13.6837 98.066 0.0660522 98.066C23.9355 98.066 46.8274 88.5839 63.7057 71.7056C80.5839 54.8273 90.066 31.9355 90.066 8.06599C90.066 -5.68376 86.9197 -19.1091 81.0257 -31.2475C73.7886 -46.1519 73.2031 -65.0711 84.9188 -76.7868V-76.7868Z" fill="#FF7701"/>
<path d="M1262 862C1262 845.431 1275.56 831.698 1291.8 834.99C1320.48 840.804 1347.07 854.934 1368.07 875.934C1396.2 904.064 1412 942.218 1412 982C1412 1021.78 1396.2 1059.94 1368.07 1088.07C1347.07 1109.07 1320.48 1123.2 1291.8 1129.01C1275.56 1132.3 1262 1118.57 1262 1102V1102C1262 1085.43 1275.79 1072.47 1291.45 1067.05C1304.2 1062.63 1315.92 1055.36 1325.64 1045.64C1342.52 1028.76 1352 1005.87 1352 982C1352 958.131 1342.52 935.239 1325.64 918.36C1315.92 908.638 1304.2 901.37 1291.45 896.954C1275.79 891.532 1262 878.569 1262 862V862Z" fill="#156FEB"/>
<path fill-rule="evenodd" clip-rule="evenodd" d="M1182.71 233.289C1201.46 252.043 1212 277.478 1212 304C1212 330.522 1201.46 355.957 1182.71 374.711C1163.96 393.464 1138.52 404 1112 404C1085.48 404 1060.04 393.464 1041.29 374.711C1022.54 355.957 1012 330.522 1012 304L1052 304C1052 319.913 1058.32 335.174 1069.57 346.426C1080.83 357.679 1096.09 364 1112 364C1127.91 364 1143.17 357.679 1154.43 346.426C1165.68 335.174 1172 319.913 1172 304C1172 288.087 1165.68 272.826 1154.43 261.574C1143.17 250.321 1127.91 244 1112 244C1096.09 244 1080.83 250.321 1069.57 261.574C1058.32 272.826 1052 288.087 1052 304L1012 304C1012 277.478 1022.54 252.043 1041.29 233.289C1060.04 214.536 1085.48 204 1112 204C1138.52 204 1163.96 214.536 1182.71 233.289Z" fill="url(#paint0_linear_1_94)"/>
<path fill-rule="evenodd" clip-rule="evenodd" d="M1282.71 333.289C1301.46 352.043 1312 377.478 1312 404C1312 430.522 1301.46 455.957 1282.71 474.711C1263.96 493.464 1238.52 504 1212 504C1185.48 504 1160.04 493.464 1141.29 474.711C1122.54 455.957 1112 430.522 1112 404L1152 404C1152 419.913 1158.32 435.174 1169.57 446.426C1180.83 457.679 1196.09 464 1212 464C1227.91 464 1243.17 457.679 1254.43 446.426C1265.68 435.174 1272 419.913 1272 404C1272 388.087 1265.68 372.826 1254.43 361.574C1243.17 350.321 1227.91 344 1212 344C1196.09 344 1180.83 350.321 1169.57 361.574C1158.32 372.826 1152 388.087 1152 404L1112 404C1112 377.478 1122.54 352.043 1141.29 333.289C1160.04 314.536 1185.48 304 1212 304C1238.52 304 1263.96 314.536 1282.71 333.289Z" fill="url(#paint1_linear_1_94)"/>
<path fill-rule="evenodd" clip-rule="evenodd" d="M1382.71 433.289C1401.46 452.043 1412 477.478 1412 504C1412 530.522 1401.46 555.957 1382.71 574.711C1363.96 593.464 1338.52 604 1312 604C1285.48 604 1260.04 593.464 1241.29 574.711C1222.54 555.957 1212 530.522 1212 504L1252 504C1252 519.913 1258.32 535.174 1269.57 546.426C1280.83 557.679 1296.09 564 1312 564C1327.91 564 1343.17 557.679 1354.43 546.426C1365.68 535.174 1372 519.913 1372 504C1372 488.087 1365.68 472.826 1354.43 461.574C1343.17 450.321 1327.91 444 1312 444C1296.09 444 1280.83 450.321 1269.57 461.574C1258.32 472.826 1252 488.087 1252 504L1212 504C1212 477.478 1222.54 452.043 1241.29 433.289C1260.04 414.536 1285.48 404 1312 404C1338.52 404 1363.96 414.536 1382.71 433.289Z" fill="url(#paint2_linear_1_94)"/>
</g>
<defs>
<linearGradient id="paint0_linear_1_94" x1="1112" y1="204" x2="1112" y2="404" gradientUnits="userSpaceOnUse">
<stop offset="0.25" stop-color="#156FEB"/>
<stop offset="0.75" stop-color="#FF7701"/>
</linearGradient>
<linearGradient id="paint1_linear_1_94" x1="1212" y1="304" x2="1212" y2="504" gradientUnits="userSpaceOnUse">
<stop offset="0.25" stop-color="#156FEB"/>
<stop offset="0.75" stop-color="#FF7701"/>
</linearGradient>
<linearGradient id="paint2_linear_1_94" x1="1312" y1="404" x2="1312" y2="604" gradientUnits="userSpaceOnUse">
<stop offset="0.25" stop-color="#156FEB"/>
<stop offset="0.75" stop-color="#FF7701"/>
</linearGradient>
<clipPath id="clip0_1_94">
<rect width="1512" height="982" fill="white"/>
</clipPath>
</defs>
</svg>
