<svg width="1512" height="982" viewBox="0 0 1512 982" fill="none" xmlns="http://www.w3.org/2000/svg">
<g clip-path="url(#clip0_1_233)">
<rect width="1512" height="982" transform="matrix(-1 0 0 -1 1512 982)" fill="white"/>
<path fill-rule="evenodd" clip-rule="evenodd" d="M142.678 47.6777C147.366 42.9893 150 36.6304 150 30C150 23.3696 147.366 17.0107 142.678 12.3223C137.989 7.63392 131.63 5 125 5C118.37 5 112.011 7.63392 107.322 12.3223C102.634 17.0107 100 23.3696 100 30L110 30C110 26.0217 111.58 22.2064 114.393 19.3934C117.206 16.5804 121.022 15 125 15C128.978 15 132.794 16.5804 135.607 19.3934C138.42 22.2064 140 26.0218 140 30C140 33.9782 138.42 37.7936 135.607 40.6066C132.794 43.4196 128.978 45 125 45C121.022 45 117.206 43.4196 114.393 40.6066C111.58 37.7936 110 33.9783 110 30L100 30C100 36.6304 102.634 42.9893 107.322 47.6777C112.011 52.3661 118.37 55 125 55C131.63 55 137.989 52.3661 142.678 47.6777Z" fill="url(#paint0_linear_1_233)"/>
<path fill-rule="evenodd" clip-rule="evenodd" d="M202.678 47.6777C207.366 42.9893 210 36.6304 210 30C210 23.3696 207.366 17.0107 202.678 12.3223C197.989 7.63392 191.63 5 185 5C178.37 5 172.011 7.63392 167.322 12.3223C162.634 17.0107 160 23.3696 160 30L170 30C170 26.0217 171.58 22.2064 174.393 19.3934C177.206 16.5804 181.022 15 185 15C188.978 15 192.794 16.5804 195.607 19.3934C198.42 22.2064 200 26.0218 200 30C200 33.9782 198.42 37.7936 195.607 40.6066C192.794 43.4196 188.978 45 185 45C181.022 45 177.206 43.4196 174.393 40.6066C171.58 37.7936 170 33.9783 170 30L160 30C160 36.6304 162.634 42.9893 167.322 47.6777C172.011 52.3661 178.37 55 185 55C191.63 55 197.989 52.3661 202.678 47.6777Z" fill="url(#paint1_linear_1_233)"/>
<path fill-rule="evenodd" clip-rule="evenodd" d="M262.678 47.6777C267.366 42.9893 270 36.6304 270 30C270 23.3696 267.366 17.0107 262.678 12.3223C257.989 7.63392 251.63 5 245 5C238.37 5 232.011 7.63392 227.322 12.3223C222.634 17.0107 220 23.3696 220 30L230 30C230 26.0217 231.58 22.2064 234.393 19.3934C237.206 16.5804 241.022 15 245 15C248.978 15 252.794 16.5804 255.607 19.3934C258.42 22.2064 260 26.0218 260 30C260 33.9782 258.42 37.7936 255.607 40.6066C252.794 43.4196 248.978 45 245 45C241.022 45 237.206 43.4196 234.393 40.6066C231.58 37.7936 230 33.9783 230 30L220 30C220 36.6304 222.634 42.9893 227.322 47.6777C232.011 52.3661 238.37 55 245 55C251.63 55 257.989 52.3661 262.678 47.6777Z" fill="url(#paint2_linear_1_233)"/>
<path fill-rule="evenodd" clip-rule="evenodd" d="M322.678 47.6777C327.366 42.9893 330 36.6304 330 30C330 23.3696 327.366 17.0107 322.678 12.3223C317.989 7.63392 311.63 5 305 5C298.37 5 292.011 7.63392 287.322 12.3223C282.634 17.0107 280 23.3696 280 30L290 30C290 26.0217 291.58 22.2064 294.393 19.3934C297.206 16.5804 301.022 15 305 15C308.978 15 312.794 16.5804 315.607 19.3934C318.42 22.2064 320 26.0218 320 30C320 33.9782 318.42 37.7936 315.607 40.6066C312.794 43.4196 308.978 45 305 45C301.022 45 297.206 43.4196 294.393 40.6066C291.58 37.7936 290 33.9783 290 30L280 30C280 36.6304 282.634 42.9893 287.322 47.6777C292.011 52.3661 298.37 55 305 55C311.63 55 317.989 52.3661 322.678 47.6777Z" fill="url(#paint3_linear_1_233)"/>
<path fill-rule="evenodd" clip-rule="evenodd" d="M142.678 72.3223C147.366 77.0107 150 83.3696 150 90C150 96.6304 147.366 102.989 142.678 107.678C137.989 112.366 131.63 115 125 115C118.37 115 112.011 112.366 107.322 107.678C102.634 102.989 100 96.6304 100 90L110 90C110 93.9783 111.58 97.7936 114.393 100.607C117.206 103.42 121.022 105 125 105C128.978 105 132.794 103.42 135.607 100.607C138.42 97.7936 140 93.9782 140 90C140 86.0218 138.42 82.2064 135.607 79.3934C132.794 76.5804 128.978 75 125 75C121.022 75 117.206 76.5804 114.393 79.3934C111.58 82.2064 110 86.0217 110 90L100 90C100 83.3696 102.634 77.0107 107.322 72.3223C112.011 67.6339 118.37 65 125 65C131.63 65 137.989 67.6339 142.678 72.3223Z" fill="url(#paint4_linear_1_233)"/>
<path fill-rule="evenodd" clip-rule="evenodd" d="M202.678 72.3223C207.366 77.0107 210 83.3696 210 90C210 96.6304 207.366 102.989 202.678 107.678C197.989 112.366 191.63 115 185 115C178.37 115 172.011 112.366 167.322 107.678C162.634 102.989 160 96.6304 160 90L170 90C170 93.9783 171.58 97.7936 174.393 100.607C177.206 103.42 181.022 105 185 105C188.978 105 192.794 103.42 195.607 100.607C198.42 97.7936 200 93.9782 200 90C200 86.0218 198.42 82.2064 195.607 79.3934C192.794 76.5804 188.978 75 185 75C181.022 75 177.206 76.5804 174.393 79.3934C171.58 82.2064 170 86.0217 170 90L160 90C160 83.3696 162.634 77.0107 167.322 72.3223C172.011 67.6339 178.37 65 185 65C191.63 65 197.989 67.6339 202.678 72.3223Z" fill="url(#paint5_linear_1_233)"/>
<path fill-rule="evenodd" clip-rule="evenodd" d="M262.678 72.3223C267.366 77.0107 270 83.3696 270 90C270 96.6304 267.366 102.989 262.678 107.678C257.989 112.366 251.63 115 245 115C238.37 115 232.011 112.366 227.322 107.678C222.634 102.989 220 96.6304 220 90L230 90C230 93.9783 231.58 97.7936 234.393 100.607C237.206 103.42 241.022 105 245 105C248.978 105 252.794 103.42 255.607 100.607C258.42 97.7936 260 93.9782 260 90C260 86.0218 258.42 82.2064 255.607 79.3934C252.794 76.5804 248.978 75 245 75C241.022 75 237.206 76.5804 234.393 79.3934C231.58 82.2064 230 86.0217 230 90L220 90C220 83.3696 222.634 77.0107 227.322 72.3223C232.011 67.6339 238.37 65 245 65C251.63 65 257.989 67.6339 262.678 72.3223Z" fill="url(#paint6_linear_1_233)"/>
<path fill-rule="evenodd" clip-rule="evenodd" d="M322.678 72.3223C327.366 77.0107 330 83.3696 330 90C330 96.6304 327.366 102.989 322.678 107.678C317.989 112.366 311.63 115 305 115C298.37 115 292.011 112.366 287.322 107.678C282.634 102.989 280 96.6304 280 90L290 90C290 93.9783 291.58 97.7936 294.393 100.607C297.206 103.42 301.022 105 305 105C308.978 105 312.794 103.42 315.607 100.607C318.42 97.7936 320 93.9782 320 90C320 86.0218 318.42 82.2064 315.607 79.3934C312.794 76.5804 308.978 75 305 75C301.022 75 297.206 76.5804 294.393 79.3934C291.58 82.2064 290 86.0217 290 90L280 90C280 83.3696 282.634 77.0107 287.322 72.3223C292.011 67.6339 298.37 65 305 65C311.63 65 317.989 67.6339 322.678 72.3223Z" fill="url(#paint7_linear_1_233)"/>
<path fill-rule="evenodd" clip-rule="evenodd" d="M1182.71 -165.711C1201.46 -146.957 1212 -121.522 1212 -95C1212 -68.4784 1201.46 -43.043 1182.71 -24.2893C1163.96 -5.53569 1138.52 5 1112 5C1085.48 5 1060.04 -5.53568 1041.29 -24.2893C1022.54 -43.043 1012 -68.4783 1012 -95L1052 -95C1052 -79.087 1058.32 -63.8258 1069.57 -52.5736C1080.83 -41.3214 1096.09 -35 1112 -35C1127.91 -35 1143.17 -41.3214 1154.43 -52.5736C1165.68 -63.8258 1172 -79.087 1172 -95C1172 -110.913 1165.68 -126.174 1154.43 -137.426C1143.17 -148.679 1127.91 -155 1112 -155C1096.09 -155 1080.83 -148.679 1069.57 -137.426C1058.32 -126.174 1052 -110.913 1052 -95L1012 -95C1012 -121.522 1022.54 -146.957 1041.29 -165.711C1060.04 -184.464 1085.48 -195 1112 -195C1138.52 -195 1163.96 -184.464 1182.71 -165.711Z" fill="url(#paint8_linear_1_233)"/>
<path fill-rule="evenodd" clip-rule="evenodd" d="M1282.71 -65.7107C1301.46 -46.957 1312 -21.5216 1312 5C1312 31.5216 1301.46 56.957 1282.71 75.7107C1263.96 94.4643 1238.52 105 1212 105C1185.48 105 1160.04 94.4643 1141.29 75.7107C1122.54 56.957 1112 31.5217 1112 5.00002L1152 5.00001C1152 20.913 1158.32 36.1742 1169.57 47.4264C1180.83 58.6786 1196.09 65 1212 65C1227.91 65 1243.17 58.6786 1254.43 47.4264C1265.68 36.1742 1272 20.913 1272 5C1272 -10.913 1265.68 -26.1742 1254.43 -37.4264C1243.17 -48.6786 1227.91 -55 1212 -55C1196.09 -55 1180.83 -48.6786 1169.57 -37.4264C1158.32 -26.1742 1152 -10.913 1152 4.99999L1112 4.99998C1112 -21.5217 1122.54 -46.9571 1141.29 -65.7107C1160.04 -84.4643 1185.48 -95 1212 -95C1238.52 -95 1263.96 -84.4643 1282.71 -65.7107Z" fill="url(#paint9_linear_1_233)"/>
<path fill-rule="evenodd" clip-rule="evenodd" d="M1382.71 34.2893C1401.46 53.043 1412 78.4784 1412 105C1412 131.522 1401.46 156.957 1382.71 175.711C1363.96 194.464 1338.52 205 1312 205C1285.48 205 1260.04 194.464 1241.29 175.711C1222.54 156.957 1212 131.522 1212 105L1252 105C1252 120.913 1258.32 136.174 1269.57 147.426C1280.83 158.679 1296.09 165 1312 165C1327.91 165 1343.17 158.679 1354.43 147.426C1365.68 136.174 1372 120.913 1372 105C1372 89.087 1365.68 73.8258 1354.43 62.5736C1343.17 51.3214 1327.91 45 1312 45C1296.09 45 1280.83 51.3214 1269.57 62.5736C1258.32 73.8258 1252 89.087 1252 105L1212 105C1212 78.4783 1222.54 53.0429 1241.29 34.2893C1260.04 15.5357 1285.48 5 1312 5C1338.52 5 1363.96 15.5357 1382.71 34.2893Z" fill="url(#paint10_linear_1_233)"/>
<path d="M250 862C250 845.431 236.437 831.698 220.199 834.99C191.519 840.804 164.934 854.934 143.934 875.934C115.804 904.064 100 942.218 100 982C100 1021.78 115.804 1059.94 143.934 1088.07C164.934 1109.07 191.519 1123.2 220.199 1129.01C236.437 1132.3 250 1118.57 250 1102C250 1085.43 236.208 1072.47 220.552 1067.05C207.801 1062.63 196.083 1055.36 186.36 1045.64C169.482 1028.76 160 1005.87 160 982C160 958.131 169.482 935.239 186.36 918.36C196.083 908.638 207.801 901.37 220.552 896.954C236.208 891.533 250 878.569 250 862Z" fill="#FF7701"/>
<path d="M1262 862C1262 845.431 1275.56 831.698 1291.8 834.99C1320.48 840.804 1347.07 854.934 1368.07 875.934C1396.2 904.064 1412 942.218 1412 982C1412 1021.78 1396.2 1059.94 1368.07 1088.07C1347.07 1109.07 1320.48 1123.2 1291.8 1129.01C1275.56 1132.3 1262 1118.57 1262 1102C1262 1085.43 1275.79 1072.47 1291.45 1067.05C1304.2 1062.63 1315.92 1055.36 1325.64 1045.64C1342.52 1028.76 1352 1005.87 1352 982C1352 958.131 1342.52 935.239 1325.64 918.36C1315.92 908.638 1304.2 901.37 1291.45 896.954C1275.79 891.533 1262 878.569 1262 862Z" fill="#156FEB"/>
</g>
<defs>
<linearGradient id="paint0_linear_1_233" x1="125" y1="55" x2="125" y2="5" gradientUnits="userSpaceOnUse">
<stop offset="0.25" stop-color="#156FEB"/>
<stop offset="0.75" stop-color="#FF7701"/>
</linearGradient>
<linearGradient id="paint1_linear_1_233" x1="185" y1="55" x2="185" y2="5" gradientUnits="userSpaceOnUse">
<stop offset="0.25" stop-color="#156FEB"/>
<stop offset="0.75" stop-color="#FF7701"/>
</linearGradient>
<linearGradient id="paint2_linear_1_233" x1="245" y1="55" x2="245" y2="5" gradientUnits="userSpaceOnUse">
<stop offset="0.25" stop-color="#156FEB"/>
<stop offset="0.75" stop-color="#FF7701"/>
</linearGradient>
<linearGradient id="paint3_linear_1_233" x1="305" y1="55" x2="305" y2="5" gradientUnits="userSpaceOnUse">
<stop offset="0.25" stop-color="#156FEB"/>
<stop offset="0.75" stop-color="#FF7701"/>
</linearGradient>
<linearGradient id="paint4_linear_1_233" x1="125" y1="65" x2="125" y2="115" gradientUnits="userSpaceOnUse">
<stop offset="0.25" stop-color="#156FEB"/>
<stop offset="0.75" stop-color="#FF7701"/>
</linearGradient>
<linearGradient id="paint5_linear_1_233" x1="185" y1="65" x2="185" y2="115" gradientUnits="userSpaceOnUse">
<stop offset="0.25" stop-color="#156FEB"/>
<stop offset="0.75" stop-color="#FF7701"/>
</linearGradient>
<linearGradient id="paint6_linear_1_233" x1="245" y1="65" x2="245" y2="115" gradientUnits="userSpaceOnUse">
<stop offset="0.25" stop-color="#156FEB"/>
<stop offset="0.75" stop-color="#FF7701"/>
</linearGradient>
<linearGradient id="paint7_linear_1_233" x1="305" y1="65" x2="305" y2="115" gradientUnits="userSpaceOnUse">
<stop offset="0.25" stop-color="#156FEB"/>
<stop offset="0.75" stop-color="#FF7701"/>
</linearGradient>
<linearGradient id="paint8_linear_1_233" x1="1112" y1="-195" x2="1112" y2="5" gradientUnits="userSpaceOnUse">
<stop offset="0.25" stop-color="#156FEB"/>
<stop offset="0.75" stop-color="#FF7701"/>
</linearGradient>
<linearGradient id="paint9_linear_1_233" x1="1212" y1="-95" x2="1212" y2="105" gradientUnits="userSpaceOnUse">
<stop offset="0.25" stop-color="#156FEB"/>
<stop offset="0.75" stop-color="#FF7701"/>
</linearGradient>
<linearGradient id="paint10_linear_1_233" x1="1312" y1="5" x2="1312" y2="205" gradientUnits="userSpaceOnUse">
<stop offset="0.25" stop-color="#156FEB"/>
<stop offset="0.75" stop-color="#FF7701"/>
</linearGradient>
<clipPath id="clip0_1_233">
<rect width="1512" height="982" fill="white" transform="matrix(-1 0 0 -1 1512 982)"/>
</clipPath>
</defs>
</svg>
