<svg width="1512" height="982" viewBox="0 0 1512 982" fill="none" xmlns="http://www.w3.org/2000/svg">
<g clip-path="url(#clip0_1_121)">
<rect width="1512" height="982" transform="matrix(1 0 0 -1 0 982)" fill="white"/>
<path d="M250 120C250 136.569 236.437 150.302 220.199 147.01C191.519 141.196 164.934 127.066 143.934 106.066C115.804 77.9356 100 39.7825 100 2.50339e-06C100 -39.7825 115.804 -77.9356 143.934 -106.066C164.934 -127.066 191.519 -141.196 220.199 -147.01C236.437 -150.302 250 -136.569 250 -120V-120C250 -103.431 236.208 -90.4675 220.552 -85.0459C207.801 -80.6305 196.083 -73.3622 186.36 -63.6396C169.482 -46.7613 160 -23.8695 160 2.50339e-06C160 23.8695 169.482 46.7613 186.36 63.6396C196.083 73.3621 207.801 80.6305 220.552 85.0459C236.208 90.4675 250 103.431 250 120V120Z" fill="#FF7701"/>
<path d="M1262 120C1262 136.569 1275.56 150.302 1291.8 147.01C1320.48 141.196 1347.07 127.066 1368.07 106.066C1396.2 77.9356 1412 39.7825 1412 2.50339e-06C1412 -39.7825 1396.2 -77.9356 1368.07 -106.066C1347.07 -127.066 1320.48 -141.196 1291.8 -147.01C1275.56 -150.302 1262 -136.569 1262 -120V-120C1262 -103.431 1275.79 -90.4675 1291.45 -85.0459C1304.2 -80.6305 1315.92 -73.3622 1325.64 -63.6396C1342.52 -46.7613 1352 -23.8695 1352 2.50339e-06C1352 23.8695 1342.52 46.7613 1325.64 63.6396C1315.92 73.3621 1304.2 80.6305 1291.45 85.0459C1275.79 90.4675 1262 103.431 1262 120V120Z" fill="#156FEB"/>
<path fill-rule="evenodd" clip-rule="evenodd" d="M142.678 909.678C147.366 904.989 150 898.63 150 892C150 885.37 147.366 879.011 142.678 874.322C137.989 869.634 131.63 867 125 867C118.37 867 112.011 869.634 107.322 874.322C102.634 879.011 100 885.37 100 892L110 892C110 888.022 111.58 884.206 114.393 881.393C117.206 878.58 121.022 877 125 877C128.978 877 132.794 878.58 135.607 881.393C138.42 884.206 140 888.022 140 892C140 895.978 138.42 899.794 135.607 902.607C132.794 905.42 128.978 907 125 907C121.022 907 117.206 905.42 114.393 902.607C111.58 899.794 110 895.978 110 892L100 892C100 898.63 102.634 904.989 107.322 909.678C112.011 914.366 118.37 917 125 917C131.63 917 137.989 914.366 142.678 909.678Z" fill="url(#paint0_linear_1_121)"/>
<path fill-rule="evenodd" clip-rule="evenodd" d="M202.678 909.678C207.366 904.989 210 898.63 210 892C210 885.37 207.366 879.011 202.678 874.322C197.989 869.634 191.63 867 185 867C178.37 867 172.011 869.634 167.322 874.322C162.634 879.011 160 885.37 160 892L170 892C170 888.022 171.58 884.206 174.393 881.393C177.206 878.58 181.022 877 185 877C188.978 877 192.794 878.58 195.607 881.393C198.42 884.206 200 888.022 200 892C200 895.978 198.42 899.794 195.607 902.607C192.794 905.42 188.978 907 185 907C181.022 907 177.206 905.42 174.393 902.607C171.58 899.794 170 895.978 170 892L160 892C160 898.63 162.634 904.989 167.322 909.678C172.011 914.366 178.37 917 185 917C191.63 917 197.989 914.366 202.678 909.678Z" fill="url(#paint1_linear_1_121)"/>
<path fill-rule="evenodd" clip-rule="evenodd" d="M262.678 909.678C267.366 904.989 270 898.63 270 892C270 885.37 267.366 879.011 262.678 874.322C257.989 869.634 251.63 867 245 867C238.37 867 232.011 869.634 227.322 874.322C222.634 879.011 220 885.37 220 892L230 892C230 888.022 231.58 884.206 234.393 881.393C237.206 878.58 241.022 877 245 877C248.978 877 252.794 878.58 255.607 881.393C258.42 884.206 260 888.022 260 892C260 895.978 258.42 899.794 255.607 902.607C252.794 905.42 248.978 907 245 907C241.022 907 237.206 905.42 234.393 902.607C231.58 899.794 230 895.978 230 892L220 892C220 898.63 222.634 904.989 227.322 909.678C232.011 914.366 238.37 917 245 917C251.63 917 257.989 914.366 262.678 909.678Z" fill="url(#paint2_linear_1_121)"/>
<path fill-rule="evenodd" clip-rule="evenodd" d="M322.678 909.678C327.366 904.989 330 898.63 330 892C330 885.37 327.366 879.011 322.678 874.322C317.989 869.634 311.63 867 305 867C298.37 867 292.011 869.634 287.322 874.322C282.634 879.011 280 885.37 280 892L290 892C290 888.022 291.58 884.206 294.393 881.393C297.206 878.58 301.022 877 305 877C308.978 877 312.794 878.58 315.607 881.393C318.42 884.206 320 888.022 320 892C320 895.978 318.42 899.794 315.607 902.607C312.794 905.42 308.978 907 305 907C301.022 907 297.206 905.42 294.393 902.607C291.58 899.794 290 895.978 290 892L280 892C280 898.63 282.634 904.989 287.322 909.678C292.011 914.366 298.37 917 305 917C311.63 917 317.989 914.366 322.678 909.678Z" fill="url(#paint3_linear_1_121)"/>
<path fill-rule="evenodd" clip-rule="evenodd" d="M142.678 934.322C147.366 939.011 150 945.37 150 952C150 958.63 147.366 964.989 142.678 969.678C137.989 974.366 131.63 977 125 977C118.37 977 112.011 974.366 107.322 969.678C102.634 964.989 100 958.63 100 952L110 952C110 955.978 111.58 959.794 114.393 962.607C117.206 965.42 121.022 967 125 967C128.978 967 132.794 965.42 135.607 962.607C138.42 959.794 140 955.978 140 952C140 948.022 138.42 944.206 135.607 941.393C132.794 938.58 128.978 937 125 937C121.022 937 117.206 938.58 114.393 941.393C111.58 944.206 110 948.022 110 952L100 952C100 945.37 102.634 939.011 107.322 934.322C112.011 929.634 118.37 927 125 927C131.63 927 137.989 929.634 142.678 934.322Z" fill="url(#paint4_linear_1_121)"/>
<path fill-rule="evenodd" clip-rule="evenodd" d="M202.678 934.322C207.366 939.011 210 945.37 210 952C210 958.63 207.366 964.989 202.678 969.678C197.989 974.366 191.63 977 185 977C178.37 977 172.011 974.366 167.322 969.678C162.634 964.989 160 958.63 160 952L170 952C170 955.978 171.58 959.794 174.393 962.607C177.206 965.42 181.022 967 185 967C188.978 967 192.794 965.42 195.607 962.607C198.42 959.794 200 955.978 200 952C200 948.022 198.42 944.206 195.607 941.393C192.794 938.58 188.978 937 185 937C181.022 937 177.206 938.58 174.393 941.393C171.58 944.206 170 948.022 170 952L160 952C160 945.37 162.634 939.011 167.322 934.322C172.011 929.634 178.37 927 185 927C191.63 927 197.989 929.634 202.678 934.322Z" fill="url(#paint5_linear_1_121)"/>
<path fill-rule="evenodd" clip-rule="evenodd" d="M262.678 934.322C267.366 939.011 270 945.37 270 952C270 958.63 267.366 964.989 262.678 969.678C257.989 974.366 251.63 977 245 977C238.37 977 232.011 974.366 227.322 969.678C222.634 964.989 220 958.63 220 952L230 952C230 955.978 231.58 959.794 234.393 962.607C237.206 965.42 241.022 967 245 967C248.978 967 252.794 965.42 255.607 962.607C258.42 959.794 260 955.978 260 952C260 948.022 258.42 944.206 255.607 941.393C252.794 938.58 248.978 937 245 937C241.022 937 237.206 938.58 234.393 941.393C231.58 944.206 230 948.022 230 952L220 952C220 945.37 222.634 939.011 227.322 934.322C232.011 929.634 238.37 927 245 927C251.63 927 257.989 929.634 262.678 934.322Z" fill="url(#paint6_linear_1_121)"/>
<path fill-rule="evenodd" clip-rule="evenodd" d="M322.678 934.322C327.366 939.011 330 945.37 330 952C330 958.63 327.366 964.989 322.678 969.678C317.989 974.366 311.63 977 305 977C298.37 977 292.011 974.366 287.322 969.678C282.634 964.989 280 958.63 280 952L290 952C290 955.978 291.58 959.794 294.393 962.607C297.206 965.42 301.022 967 305 967C308.978 967 312.794 965.42 315.607 962.607C318.42 959.794 320 955.978 320 952C320 948.022 318.42 944.206 315.607 941.393C312.794 938.58 308.978 937 305 937C301.022 937 297.206 938.58 294.393 941.393C291.58 944.206 290 948.022 290 952L280 952C280 945.37 282.634 939.011 287.322 934.322C292.011 929.634 298.37 927 305 927C311.63 927 317.989 929.634 322.678 934.322Z" fill="url(#paint7_linear_1_121)"/>
<path fill-rule="evenodd" clip-rule="evenodd" d="M1182.71 816.289C1201.46 835.043 1212 860.478 1212 887C1212 913.522 1201.46 938.957 1182.71 957.711C1163.96 976.464 1138.52 987 1112 987C1085.48 987 1060.04 976.464 1041.29 957.711C1022.54 938.957 1012 913.522 1012 887L1052 887C1052 902.913 1058.32 918.174 1069.57 929.426C1080.83 940.679 1096.09 947 1112 947C1127.91 947 1143.17 940.679 1154.43 929.426C1165.68 918.174 1172 902.913 1172 887C1172 871.087 1165.68 855.826 1154.43 844.574C1143.17 833.321 1127.91 827 1112 827C1096.09 827 1080.83 833.321 1069.57 844.574C1058.32 855.826 1052 871.087 1052 887L1012 887C1012 860.478 1022.54 835.043 1041.29 816.289C1060.04 797.536 1085.48 787 1112 787C1138.52 787 1163.96 797.536 1182.71 816.289Z" fill="url(#paint8_linear_1_121)"/>
<path fill-rule="evenodd" clip-rule="evenodd" d="M1282.71 916.289C1301.46 935.043 1312 960.478 1312 987C1312 1013.52 1301.46 1038.96 1282.71 1057.71C1263.96 1076.46 1238.52 1087 1212 1087C1185.48 1087 1160.04 1076.46 1141.29 1057.71C1122.54 1038.96 1112 1013.52 1112 987L1152 987C1152 1002.91 1158.32 1018.17 1169.57 1029.43C1180.83 1040.68 1196.09 1047 1212 1047C1227.91 1047 1243.17 1040.68 1254.43 1029.43C1265.68 1018.17 1272 1002.91 1272 987C1272 971.087 1265.68 955.826 1254.43 944.574C1243.17 933.321 1227.91 927 1212 927C1196.09 927 1180.83 933.321 1169.57 944.574C1158.32 955.826 1152 971.087 1152 987L1112 987C1112 960.478 1122.54 935.043 1141.29 916.289C1160.04 897.536 1185.48 887 1212 887C1238.52 887 1263.96 897.536 1282.71 916.289Z" fill="url(#paint9_linear_1_121)"/>
</g>
<defs>
<linearGradient id="paint0_linear_1_121" x1="125" y1="917" x2="125" y2="867" gradientUnits="userSpaceOnUse">
<stop offset="0.25" stop-color="#156FEB"/>
<stop offset="0.75" stop-color="#FF7701"/>
</linearGradient>
<linearGradient id="paint1_linear_1_121" x1="185" y1="917" x2="185" y2="867" gradientUnits="userSpaceOnUse">
<stop offset="0.25" stop-color="#156FEB"/>
<stop offset="0.75" stop-color="#FF7701"/>
</linearGradient>
<linearGradient id="paint2_linear_1_121" x1="245" y1="917" x2="245" y2="867" gradientUnits="userSpaceOnUse">
<stop offset="0.25" stop-color="#156FEB"/>
<stop offset="0.75" stop-color="#FF7701"/>
</linearGradient>
<linearGradient id="paint3_linear_1_121" x1="305" y1="917" x2="305" y2="867" gradientUnits="userSpaceOnUse">
<stop offset="0.25" stop-color="#156FEB"/>
<stop offset="0.75" stop-color="#FF7701"/>
</linearGradient>
<linearGradient id="paint4_linear_1_121" x1="125" y1="927" x2="125" y2="977" gradientUnits="userSpaceOnUse">
<stop offset="0.25" stop-color="#156FEB"/>
<stop offset="0.75" stop-color="#FF7701"/>
</linearGradient>
<linearGradient id="paint5_linear_1_121" x1="185" y1="927" x2="185" y2="977" gradientUnits="userSpaceOnUse">
<stop offset="0.25" stop-color="#156FEB"/>
<stop offset="0.75" stop-color="#FF7701"/>
</linearGradient>
<linearGradient id="paint6_linear_1_121" x1="245" y1="927" x2="245" y2="977" gradientUnits="userSpaceOnUse">
<stop offset="0.25" stop-color="#156FEB"/>
<stop offset="0.75" stop-color="#FF7701"/>
</linearGradient>
<linearGradient id="paint7_linear_1_121" x1="305" y1="927" x2="305" y2="977" gradientUnits="userSpaceOnUse">
<stop offset="0.25" stop-color="#156FEB"/>
<stop offset="0.75" stop-color="#FF7701"/>
</linearGradient>
<linearGradient id="paint8_linear_1_121" x1="1112" y1="787" x2="1112" y2="987" gradientUnits="userSpaceOnUse">
<stop offset="0.25" stop-color="#156FEB"/>
<stop offset="0.75" stop-color="#FF7701"/>
</linearGradient>
<linearGradient id="paint9_linear_1_121" x1="1212" y1="887" x2="1212" y2="1087" gradientUnits="userSpaceOnUse">
<stop offset="0.25" stop-color="#156FEB"/>
<stop offset="0.75" stop-color="#FF7701"/>
</linearGradient>
<clipPath id="clip0_1_121">
<rect width="1512" height="982" fill="white" transform="matrix(1 0 0 -1 0 982)"/>
</clipPath>
</defs>
</svg>
